<svg version="1.1" id="Layer_1" xmlns="http://www.w3.org/2000/svg" xmlns:xlink="http://www.w3.org/1999/xlink" x="0px" y="0px"
	 width="100%" viewBox="0 0 346 346" enable-background="new 0 0 346 346" xml:space="preserve">
<path fill="#000000" opacity="1.000000" stroke="none" 
	d="
M347.000000,124.000000 
	C347.000000,198.666672 347.000000,272.833344 347.000000,347.000000 
	C231.666672,347.000000 116.333359,347.000000 1.000026,347.000000 
	C1.000017,231.666687 1.000017,116.333366 1.000008,1.000041 
	C116.333313,1.000027 231.666626,1.000027 346.999969,1.000014 
	C347.000000,41.833332 347.000000,82.666664 347.000000,124.000000 
M299.872955,62.455215 
	C299.585571,62.294041 299.298157,62.132866 298.994324,62.016254 
	C298.994324,62.016254 299.041321,62.009377 298.876160,61.491245 
	C298.575165,61.305897 298.274139,61.120548 297.824524,60.491863 
	C297.638611,60.211929 297.378357,60.056393 296.867493,59.521164 
	C296.572815,59.339794 296.278107,59.158424 295.976929,59.022923 
	C295.976929,59.022923 296.022766,59.016254 295.859375,58.515015 
	C295.568542,58.335236 295.277679,58.155457 294.979431,58.019855 
	C294.979431,58.019855 295.023712,58.013142 294.861694,57.512066 
	C294.571533,57.331650 294.281372,57.151230 293.982727,57.016918 
	C293.982727,57.016918 294.028778,57.008163 293.861328,56.509754 
	C293.571075,56.330254 293.280792,56.150753 292.982239,56.017509 
	C292.982239,56.017509 293.028442,56.008915 292.857422,55.508118 
	C292.566162,55.324257 292.274902,55.140396 291.829559,54.506287 
	C291.642914,54.221191 291.380463,54.057941 290.863525,53.517929 
	C290.572174,53.334831 290.280853,53.151730 289.981354,53.014606 
	C289.981354,53.014606 290.027069,53.005184 289.933899,52.336857 
	C289.296478,51.874306 288.659027,51.411755 288.014160,51.006550 
	C288.014160,51.006550 288.065399,50.979843 287.873047,50.487972 
	C287.579437,50.309658 287.285828,50.131344 286.984924,50.013527 
	C286.984924,50.013527 287.045441,50.006397 286.874878,49.492908 
	C286.577637,49.303337 286.280426,49.113766 285.846344,48.491592 
	C285.672150,48.216824 285.423737,48.058704 284.918243,47.495739 
	C284.613373,47.308605 284.308502,47.121468 284.005432,46.995018 
	C284.005432,46.995018 284.058899,46.966175 283.829285,46.323071 
	C282.553040,45.534000 281.276794,44.744930 279.988220,44.013157 
	C279.988220,44.013157 280.046570,44.007900 279.886993,43.495239 
	C279.591736,43.310375 279.296448,43.125515 278.996674,42.998993 
	C278.996674,42.998993 279.051025,42.977386 278.823578,42.332569 
	C277.548309,41.541809 276.273041,40.751049 274.984650,40.015232 
	C274.984650,40.015232 275.040955,40.010521 274.897980,39.496517 
	C274.604340,39.315899 274.310669,39.135281 274.021606,39.002422 
	C274.021606,39.002422 274.039764,38.956532 273.797028,38.297466 
	C271.186218,36.883701 268.575378,35.469936 265.797028,33.590900 
	C265.615082,33.294662 265.356567,33.100224 264.912811,32.456940 
	C264.585876,32.380039 264.258911,32.303139 263.411438,32.027538 
	C262.989777,31.672070 262.568085,31.316603 261.892090,30.303196 
	C260.612183,29.841909 259.332306,29.380623 258.006683,28.979218 
	C258.006683,28.979218 258.076355,28.950579 257.918854,28.409334 
	C257.585419,28.328671 257.251984,28.248007 256.340637,27.909702 
	C255.282837,27.281586 254.225052,26.653469 252.947968,25.413071 
	C252.557190,25.331966 252.166397,25.250862 251.481232,25.067663 
	C251.481232,25.067663 251.173004,25.022184 250.955872,24.416422 
	C250.572037,24.337349 250.188217,24.258278 249.480499,24.081989 
	C249.480499,24.081989 249.146484,24.029245 248.937500,23.422726 
	C248.552383,23.345560 248.167282,23.268394 247.221970,23.094646 
	C246.844498,23.062428 246.467026,23.030207 245.904587,22.476959 
	C245.580032,22.387302 245.255493,22.297647 244.535629,22.075258 
	C244.535629,22.075258 244.124680,22.004538 243.917252,21.460018 
	C243.572250,21.380041 243.227264,21.300064 242.505661,21.103134 
	C242.505661,21.103134 242.120346,21.019144 241.936020,20.438272 
	C241.575043,20.351849 241.214081,20.265427 240.519989,20.074398 
	C240.519989,20.074398 240.175369,20.018293 239.948654,19.406633 
	C239.555740,19.323494 239.162842,19.240355 238.222809,19.072357 
	C237.854462,19.051775 237.486115,19.031195 236.816910,18.351503 
	C235.498749,17.976997 234.180603,17.602491 232.505936,17.092249 
	C232.505936,17.092249 232.133316,17.010542 231.932144,16.442600 
	C231.575012,16.358715 231.217896,16.274828 230.292603,16.090466 
	C229.908615,16.068335 229.524628,16.046202 228.861069,15.402197 
	C228.215179,15.341485 227.569275,15.280773 226.536819,15.087699 
	C226.536819,15.087699 226.134644,15.015388 225.929321,14.437144 
	C225.563171,14.352387 225.197021,14.267631 224.277786,14.082651 
	C223.903580,14.063204 223.529388,14.043757 222.871262,13.367420 
	C222.190323,13.320007 221.509369,13.272595 220.265472,13.100535 
	C219.883194,13.062041 219.500931,13.023547 218.849350,12.344251 
	C218.185043,12.304614 217.520752,12.264977 216.292389,12.100551 
	C215.908096,12.075526 215.523819,12.050503 214.885239,11.407109 
	C214.254990,11.259708 213.624725,11.112307 212.985184,11.006904 
	C212.985184,11.006904 213.026855,10.996230 212.891632,10.508102 
	C212.577728,10.673806 212.263809,10.839510 211.555618,11.034072 
	C211.555618,11.034072 211.160355,11.025676 210.765472,10.294780 
	C207.495575,9.935734 204.225677,9.576687 200.573135,9.081068 
	C200.573135,9.081068 200.170807,9.024473 199.795410,8.297861 
	C198.186707,8.266454 196.578018,8.235046 194.524719,8.067211 
	C194.524719,8.067211 194.067810,7.980619 193.907410,7.488261 
	C193.581894,7.651836 193.256378,7.815412 192.469696,8.063920 
	C192.469696,8.063920 192.020996,8.200092 191.217484,8.009772 
	C185.257507,7.676411 179.252350,6.715601 173.347031,7.141010 
	C161.254181,8.012157 149.032471,8.750469 137.210587,11.210085 
	C127.520721,13.226122 118.333015,17.655771 108.581093,21.072018 
	C108.581093,21.072018 108.263336,21.209597 107.499847,21.009729 
	C98.644737,25.999565 89.789627,30.989403 80.995094,35.993774 
	C80.995094,35.993774 80.986748,35.932037 80.261734,35.991978 
	C79.103783,36.567959 77.835831,36.992718 76.804588,37.742886 
	C63.867470,47.153896 52.195053,57.974026 42.182636,70.425293 
	C37.565403,76.167198 33.938377,82.705353 29.235006,89.206154 
	C3.954877,133.714844 -1.047436,180.270935 15.137923,229.565643 
	C15.488971,230.044159 15.840017,230.522675 16.125826,231.504425 
	C16.395912,231.689896 16.665998,231.875381 16.976463,232.840729 
	C20.035885,239.893753 23.095308,246.946793 26.220900,254.697815 
	C33.609005,265.087494 40.763786,275.653351 48.441887,285.824097 
	C59.000336,299.810242 72.724304,310.179504 88.501381,319.106659 
	C89.259491,319.742157 89.943275,320.506226 90.786812,320.993988 
	C104.175232,328.735413 118.476547,334.280060 133.441498,337.992828 
	C139.507385,339.497772 145.815247,340.027374 152.002182,340.998260 
	C152.002182,340.998260 151.999451,340.989563 152.141098,341.418671 
	C152.428741,341.273773 152.716385,341.128906 153.492050,340.944031 
	C153.492050,340.944031 153.978928,340.996307 154.379211,341.631470 
	C155.958450,342.053406 157.533310,342.823517 159.117630,342.843475 
	C175.357666,343.048218 191.673706,343.904419 207.657028,340.150299 
	C216.569672,338.056946 225.316650,335.258209 234.551773,332.783173 
	C234.812012,332.634705 234.960220,332.411743 235.585312,331.997070 
	C236.064301,331.702637 236.543304,331.408234 237.775497,331.005951 
	C241.064682,329.652466 244.536469,328.621155 247.606476,326.881012 
	C254.855148,322.772369 261.912598,318.326324 268.998230,313.997711 
	C268.998230,313.997711 269.003693,314.050110 269.666931,314.031677 
	C270.458435,313.358521 271.249939,312.685364 271.998077,311.995331 
	C271.998077,311.995331 272.001221,312.041779 272.664032,312.038025 
	C273.457672,311.369598 274.251312,310.701172 274.997070,310.003815 
	C274.997070,310.003815 275.024231,310.053680 275.747894,310.081055 
	C277.507660,308.413757 279.267426,306.746460 281.648010,304.791962 
	C288.494629,298.269836 295.762604,292.126434 302.064728,285.114899 
	C307.907745,278.614197 312.718750,271.185822 318.614319,263.803497 
	C319.289215,262.483398 319.882904,261.113953 320.651184,259.850616 
	C332.987915,239.565048 339.904846,217.460373 342.951996,193.131439 
	C343.242035,184.084824 343.532074,175.038208 343.904755,165.156296 
	C343.501343,161.246216 343.265747,157.310120 342.664215,153.430771 
	C340.538635,139.722839 337.666656,126.164459 331.987335,113.440437 
	C328.696960,106.068588 324.665436,99.027557 320.929077,91.525955 
	C320.929077,91.525955 320.846313,91.223007 320.988129,90.573555 
	C320.657318,90.309334 320.326508,90.045113 319.771057,89.324852 
	C319.448975,88.939705 319.126862,88.554550 318.923126,87.586029 
	C318.618927,87.371719 318.314728,87.157402 318.005707,87.002449 
	C318.005707,87.002449 318.061340,86.981194 318.020447,86.304703 
	C317.353088,85.516655 316.685730,84.728607 316.006500,83.998466 
	C316.006500,83.998466 316.061249,83.976173 316.013397,83.308807 
	C315.364960,82.518578 314.716492,81.728340 314.022797,80.232315 
	C312.701965,78.467972 311.381134,76.703629 310.004669,74.960815 
	C310.004669,74.960815 310.061218,74.979645 309.915009,74.456451 
	C309.609863,74.285820 309.304688,74.115196 308.992310,74.007210 
	C308.992310,74.007210 309.055054,74.000809 308.887970,73.481201 
	C308.587646,73.291359 308.287292,73.101524 307.936493,72.564789 
	C307.936493,72.564789 307.816467,72.235420 307.951019,71.644867 
	C307.658051,71.412415 307.365082,71.179962 307.019196,70.946808 
	C307.019196,70.946808 307.060669,70.979218 306.924927,70.449692 
	C306.617310,70.280762 306.309692,70.111839 305.995819,70.005249 
	C305.995819,70.005249 306.057800,69.996239 305.887299,69.485870 
	C305.587433,69.308632 305.287567,69.131386 304.984711,69.013481 
	C304.984711,69.013481 305.042664,69.000504 304.942963,68.334251 
	C303.977936,67.205673 303.012909,66.077087 301.998779,64.997940 
	C301.998779,64.997940 302.052429,64.954918 301.917206,64.462433 
	C301.638489,64.283035 301.359772,64.103645 300.907623,63.444347 
	C300.623627,63.272919 300.339630,63.101486 299.872955,62.455215 
z"/>
<path fill="#229DDC" opacity="1.000000" stroke="none" 
	d="
M219.118652,12.985054 
	C219.500931,13.023547 219.883194,13.062041 220.657700,13.391977 
	C221.751678,13.797050 222.453430,13.910681 223.155182,14.024311 
	C223.529388,14.043757 223.903580,14.063204 224.750580,14.305173 
	C225.527130,14.690260 225.830887,14.852824 226.134644,15.015388 
	C226.134644,15.015388 226.536819,15.087699 226.978271,15.324018 
	C227.993378,15.714915 228.567001,15.869492 229.140640,16.024071 
	C229.524628,16.046202 229.908615,16.068335 230.765945,16.312901 
	C231.537292,16.693737 231.835312,16.852142 232.133316,17.010544 
	C232.133316,17.010542 232.505936,17.092249 232.870285,17.453268 
	C234.529007,18.213062 235.823395,18.611837 237.117767,19.010612 
	C237.486115,19.031195 237.854462,19.051775 238.709076,19.294369 
	C239.522034,19.683683 239.848694,19.850986 240.175369,20.018291 
	C240.175369,20.018293 240.519989,20.074398 240.874908,20.301563 
	C241.526657,20.692198 241.823502,20.855671 242.120346,21.019144 
	C242.120346,21.019144 242.505661,21.103134 242.874435,21.333603 
	C243.503021,21.778973 243.796844,21.925795 244.124680,22.004538 
	C244.124680,22.004538 244.535629,22.075258 244.901459,22.309143 
	C245.507324,22.756235 245.781403,22.907888 246.089554,22.997986 
	C246.467026,23.030207 246.844498,23.062428 247.705093,23.322277 
	C248.507645,23.709684 248.827057,23.869465 249.146484,24.029245 
	C249.146484,24.029245 249.480499,24.081989 249.848038,24.308083 
	C250.534714,24.696846 250.853867,24.859516 251.173004,25.022186 
	C251.173004,25.022184 251.481232,25.067663 251.837616,25.298950 
	C252.518402,25.695271 252.842834,25.860308 253.167252,26.025349 
	C254.225052,26.653469 255.282837,27.281586 256.801697,28.200680 
	C257.494415,28.714760 257.765625,28.867733 258.076355,28.950579 
	C258.076355,28.950579 258.006683,28.979218 258.160828,29.275539 
	C259.592133,30.034952 260.869293,30.498043 262.146423,30.961132 
	C262.568085,31.316603 262.989777,31.672070 263.820099,32.301441 
	C264.448273,32.801460 264.712524,32.945538 265.021484,33.007580 
	C265.356567,33.100224 265.615082,33.294662 265.907623,34.104202 
	C266.292175,35.101845 266.566162,35.586185 266.889313,36.431389 
	C267.893219,38.706081 268.723206,40.695053 269.823212,42.521381 
	C276.276581,53.236073 281.396301,64.450096 283.168579,77.294281 
	C283.532257,78.391464 283.787994,79.192345 284.040161,80.424744 
	C284.651642,88.448578 286.324829,96.139008 285.631989,103.610008 
	C284.611694,114.612068 282.687714,125.674225 279.743683,136.322342 
	C274.515259,155.233109 264.507751,171.564301 250.021347,184.655060 
	C249.723282,183.193069 249.443222,182.082291 249.106171,180.527679 
	C249.095169,177.387833 249.141144,174.691818 249.371033,171.636536 
	C248.995224,165.767380 249.139648,160.067963 247.719055,154.789749 
	C245.280670,145.729935 241.954788,136.886795 234.919281,129.676834 
	C231.019257,125.229347 227.902832,120.154648 223.405411,117.140533 
	C215.382019,111.763329 206.524521,107.630692 197.929718,102.646507 
	C195.387161,99.987045 193.008850,95.801987 190.458878,95.694633 
	C184.003006,95.422867 181.941162,92.270958 180.716614,86.766426 
	C179.982498,83.466446 178.471878,80.301964 173.820465,80.245674 
	C164.419586,80.131905 155.002472,79.082184 146.606293,74.615990 
	C141.902435,72.113853 138.206406,67.773697 133.622253,64.971840 
	C129.993912,62.754177 125.754425,60.429600 121.697685,60.258862 
	C114.138580,59.940723 106.522690,61.315674 98.915794,61.681915 
	C92.668282,61.982712 86.348953,62.371223 80.151794,61.777660 
	C70.244026,60.828693 69.809502,59.964134 69.989197,50.370293 
	C70.010963,49.207863 69.962059,48.044106 70.041046,46.558830 
	C71.679245,44.789673 73.230423,43.351196 74.763382,41.893555 
	C76.845146,39.914066 78.912956,37.919907 80.986748,35.932037 
	C80.986748,35.932037 80.995094,35.993774 81.340927,35.978180 
	C84.634415,34.546314 87.673531,33.291164 90.510742,31.680372 
	C96.484375,28.288916 102.352127,24.710995 108.263336,21.209599 
	C108.263336,21.209597 108.581093,21.072018 109.173645,21.045601 
	C111.843819,20.571875 113.977699,20.297295 115.987785,19.642628 
	C120.711868,18.104036 125.291382,16.060635 130.080902,14.794737 
	C147.959061,10.069437 166.045624,7.073171 184.664017,8.894179 
	C187.070694,9.129568 189.566483,8.453795 192.020996,8.200092 
	C192.020996,8.200092 192.469696,8.063920 192.984634,8.029613 
	C193.688980,7.990411 193.878403,7.985515 194.067810,7.980619 
	C194.067810,7.980619 194.524719,8.067211 195.083069,8.307659 
	C197.151230,8.706897 198.661011,8.865685 200.170807,9.024473 
	C200.170807,9.024473 200.573135,9.081068 201.066986,9.372746 
	C204.760666,10.118175 207.960510,10.571925 211.160355,11.025675 
	C211.160355,11.025676 211.555618,11.034072 212.022400,11.027868 
	C212.668396,11.013186 212.847626,11.004708 213.026855,10.996230 
	C213.026855,10.996230 212.985184,11.006904 213.043091,11.237320 
	C213.780502,11.653649 214.460022,11.839562 215.139526,12.025476 
	C215.523819,12.050503 215.908096,12.075526 216.682999,12.387245 
	C217.755295,12.777645 218.436966,12.881351 219.118652,12.985054 
z"/>
<path fill="#0769AF" opacity="1.000000" stroke="none" 
	d="
M234.996399,332.114288 
	C234.960220,332.411743 234.812012,332.634705 234.175629,332.484253 
	C232.595428,331.968414 231.301590,331.350311 230.201157,331.596558 
	C218.938538,334.116669 207.826324,337.782898 196.435654,339.130615 
	C183.673294,340.640717 170.666458,340.074829 157.767181,340.452545 
	C156.500198,340.489655 155.241486,340.808319 153.978928,340.996307 
	C153.978928,340.996307 153.492050,340.944031 152.996719,340.956757 
	C152.334061,340.976166 152.166748,340.982880 151.999451,340.989563 
	C151.999451,340.989563 152.002182,340.998260 151.841858,340.663147 
	C150.655685,339.891174 149.662247,339.342529 148.599091,339.034546 
	C135.257874,335.169708 121.782898,331.713287 108.607277,327.351471 
	C101.455933,324.984009 94.809738,321.090607 87.768845,317.652710 
	C86.822350,316.584564 86.042702,315.749237 85.166557,314.631470 
	C84.718712,313.879211 84.367371,313.409332 84.015396,312.969910 
	C84.014763,313.000366 84.069656,312.974060 83.987129,312.633057 
	C68.645599,287.351776 62.808441,260.375336 67.098732,231.449341 
	C70.022301,211.738098 76.708801,193.443161 90.101761,177.924683 
	C92.718864,179.419769 96.005203,180.393768 96.945938,182.444016 
	C99.798889,188.661774 101.314796,195.493866 104.177483,201.706055 
	C106.499222,206.744400 110.014038,211.232925 113.012306,215.971680 
	C113.024918,215.978027 113.035889,216.004044 113.050568,216.365875 
	C116.965408,222.821854 120.821327,228.945541 124.838860,234.961288 
	C125.212509,235.520782 126.617020,235.578720 127.531845,235.547394 
	C129.010788,235.496735 130.480545,235.178452 131.989380,234.975220 
	C132.024567,234.977249 132.026260,235.047714 132.099548,235.382416 
	C134.970367,241.586090 140.605637,242.037964 146.012314,242.962921 
	C146.029053,242.967682 146.040619,243.000534 146.165161,243.319977 
	C147.817749,244.543930 149.244583,245.910156 150.891785,246.271301 
	C157.271988,247.670135 163.722397,248.748886 170.453918,249.958511 
	C171.170258,249.997543 171.579315,250.024902 172.160553,250.333740 
	C180.554886,256.403870 188.777069,262.192474 197.309357,268.004944 
	C198.033920,268.041748 198.448364,268.054657 199.089432,268.326324 
	C201.196793,269.427948 203.077530,270.270813 205.171661,271.296326 
	C205.905853,271.679382 206.426636,271.879761 207.207642,272.302155 
	C208.968216,273.047791 210.468582,273.571381 212.254913,274.303406 
	C219.029465,276.665863 225.518051,278.819885 232.005066,281.410339 
	C231.086853,283.856537 230.239716,287.566559 229.242584,287.607330 
	C221.192566,287.936340 213.190826,288.669952 205.178680,285.505157 
	C200.746109,283.754242 195.209198,284.563110 190.185394,284.717102 
	C188.983963,284.753906 187.204865,286.584381 186.787994,287.929657 
	C185.164505,293.169037 183.503784,298.540497 187.667480,303.556976 
	C191.657028,308.363617 195.913559,313.009338 199.371704,318.181183 
	C203.826569,324.843628 210.740997,321.638428 216.442551,322.970551 
	C218.719757,323.502655 222.202911,322.023743 224.109192,320.314087 
	C227.688599,317.103912 230.557449,313.264557 235.696991,317.678070 
	C235.905472,317.857086 236.598251,317.472137 237.065399,317.349945 
	C236.746628,317.079529 236.427856,316.809113 236.109070,316.538696 
	C237.966797,313.942627 239.287659,310.078613 241.795059,309.016998 
	C246.866425,306.869781 252.570557,306.192719 258.034119,305.003021 
	C263.493317,303.814301 267.480042,300.378479 270.127899,295.866333 
	C270.830048,294.669891 268.982086,290.757050 267.289124,289.662140 
	C264.776337,288.036987 261.252502,288.073608 258.359253,286.906555 
	C256.082550,285.988220 254.108292,284.319977 252.459290,282.978027 
	C260.944977,282.001404 268.971039,281.031586 277.016541,280.438782 
	C278.194855,281.843750 280.181641,283.899780 280.382446,283.738068 
	C282.094757,282.359192 283.482758,280.577606 285.233124,278.685852 
	C293.998535,274.947876 302.498718,271.440643 310.922058,268.272339 
	C308.486023,271.102325 305.960358,273.457855 303.799255,276.110413 
	C297.725494,283.565338 291.885956,291.211914 285.770294,298.631439 
	C283.814026,301.004791 281.283447,302.904755 278.776733,305.247742 
	C277.366638,307.000702 276.195435,308.527191 275.024231,310.053680 
	C275.024231,310.053680 274.997070,310.003815 274.681274,310.023865 
	C273.577393,310.709869 272.789307,311.375824 272.001221,312.041779 
	C272.001221,312.041779 271.998077,311.995331 271.680908,312.018372 
	C270.577057,312.710968 269.790375,313.380524 269.003693,314.050110 
	C269.003693,314.050110 268.998230,313.997711 268.637268,313.999023 
	C263.910004,316.267670 259.558533,318.564240 255.173752,320.795227 
	C249.128586,323.871002 243.058212,326.897247 236.705383,330.056213 
	C235.940216,330.816559 235.468307,331.465424 234.996399,332.114288 
z"/>
<path fill="#0F84C7" opacity="1.000000" stroke="none" 
	d="
M283.060669,76.997978 
	C281.396301,64.450096 276.276581,53.236073 269.823212,42.521381 
	C268.723206,40.695053 267.893219,38.706081 267.211731,36.586826 
	C269.669891,37.239777 271.854828,38.098152 274.039764,38.956532 
	C274.039764,38.956532 274.021606,39.002422 274.145325,39.194183 
	C274.478912,39.652763 274.736206,39.860954 275.040955,40.010521 
	C275.040955,40.010521 274.984650,40.015232 275.080536,40.324661 
	C276.467957,41.415188 277.759491,42.196285 279.051025,42.977386 
	C279.051025,42.977386 278.996674,42.998993 279.133392,43.183983 
	C279.528931,43.581947 279.787750,43.794922 280.046570,44.007900 
	C280.046570,44.007900 279.988220,44.013157 280.081726,44.323181 
	C281.469788,45.410862 282.764343,46.188522 284.058899,46.966179 
	C284.058899,46.966175 284.005432,46.995018 284.147949,47.182381 
	C284.560669,47.585575 284.830872,47.801403 285.101074,48.017239 
	C285.423737,48.058704 285.672150,48.216824 286.056030,48.921661 
	C286.525604,49.569954 286.785522,49.788174 287.045441,50.006393 
	C287.045441,50.006397 286.984924,50.013527 287.133698,50.187904 
	C287.543457,50.568138 287.804413,50.773987 288.065399,50.979839 
	C288.065399,50.979843 288.014160,51.006550 288.116150,51.266830 
	C288.821136,52.019802 289.424103,52.512486 290.027069,53.005180 
	C290.027069,53.005184 289.981354,53.014606 290.129639,53.196083 
	C290.532684,53.590549 290.787476,53.803539 291.042236,54.016533 
	C291.380463,54.057941 291.642914,54.221191 292.049561,54.936340 
	C292.486053,55.623695 292.738983,55.837872 293.028442,56.008915 
	C293.028442,56.008915 292.982239,56.017509 293.129242,56.195976 
	C293.491180,56.628307 293.742035,56.839546 294.028778,57.008163 
	C294.028778,57.008163 293.982727,57.016918 294.128906,57.196030 
	C294.488556,57.630157 294.738098,57.842823 295.023712,58.013142 
	C295.023712,58.013142 294.979431,58.019855 295.124207,58.201057 
	C295.482697,58.638290 295.733948,58.849621 296.022766,59.016254 
	C296.022766,59.016254 295.976929,59.022923 296.124390,59.205788 
	C296.529144,59.600853 296.786438,59.813053 297.043732,60.025253 
	C297.378357,60.056393 297.638611,60.211929 298.040070,60.927402 
	C298.517517,61.578423 298.779419,61.793900 299.041321,62.009377 
	C299.041321,62.009377 298.994324,62.016254 298.964233,62.285465 
	C298.908264,62.748802 298.882324,62.942932 298.771973,63.350414 
	C299.372772,64.041649 300.058014,64.519531 301.070984,65.000603 
	C301.616608,64.987503 301.834503,64.971207 302.052429,64.954918 
	C302.052429,64.954918 301.998779,64.997940 301.997437,65.350540 
	C302.026703,66.457993 302.057281,67.212845 301.748627,67.914124 
	C297.813477,66.699539 296.013885,69.140800 294.122345,71.457535 
	C293.127502,72.675972 292.043671,73.821732 290.688477,74.939728 
	C289.584656,74.585770 288.792328,74.292389 287.908417,73.763969 
	C287.211639,74.019295 286.606415,74.509666 286.000916,75.333435 
	C286.000427,76.111374 286.000214,76.555901 285.631958,77.000252 
	C284.529510,76.999374 283.795074,76.998672 283.060669,76.997978 
z"/>
<path fill="#0D85CA" opacity="1.000000" stroke="none" 
	d="
M291.000000,75.000305 
	C292.043671,73.821732 293.127502,72.675972 294.122345,71.457535 
	C296.013885,69.140800 297.813477,66.699539 302.030365,68.050613 
	C303.448456,68.493935 304.245544,68.747223 305.042664,69.000504 
	C305.042664,69.000504 304.984711,69.013481 305.123657,69.196869 
	C305.527710,69.585587 305.792755,69.790909 306.057800,69.996231 
	C306.057800,69.996239 305.995819,70.005249 306.131104,70.188782 
	C306.531128,70.574608 306.795898,70.776917 307.060669,70.979218 
	C307.060669,70.979218 307.019196,70.946808 306.953491,71.209526 
	C306.832764,71.649323 306.777771,71.826408 306.543457,72.260223 
	C304.193085,76.624275 306.749451,77.557381 310.058044,78.224022 
	C310.073303,78.452415 310.085205,78.910057 309.876221,79.197052 
	C308.972168,81.120827 308.277069,82.757599 307.581970,84.394363 
	C309.269348,84.330170 310.957428,84.279480 312.643707,84.193222 
	C313.124756,84.168617 313.600586,84.040825 314.409119,83.969299 
	C315.180054,83.977547 315.620667,83.976860 316.061249,83.976173 
	C316.061249,83.976173 316.006500,83.998466 316.032471,84.306793 
	C316.726074,85.403816 317.393707,86.192505 318.061340,86.981194 
	C318.061340,86.981194 318.005707,87.002449 318.100159,87.200638 
	C318.356903,87.688194 318.560303,87.945045 318.804779,88.169395 
	C319.126862,88.554550 319.448975,88.939705 319.977692,89.818802 
	C320.404968,90.616173 320.625641,90.919594 320.846313,91.223007 
	C320.846313,91.223007 320.929077,91.525955 320.966553,92.075455 
	C321.350922,94.402260 321.697815,96.179573 321.684570,98.021835 
	C320.168335,99.676735 319.012238,101.266685 317.716064,103.049286 
	C312.827026,97.352272 307.921234,91.635742 303.015442,85.919205 
	C301.589447,84.203407 299.807098,82.676521 298.030762,81.142662 
	C296.749359,80.036171 295.474487,78.922066 294.199493,77.808174 
	C293.130920,76.874603 292.066345,75.936447 291.000000,75.000305 
M302.854370,74.796875 
	C301.648285,74.585068 300.437683,74.243103 299.240417,74.284790 
	C299.031830,74.292046 298.424805,76.327599 298.781250,76.722084 
	C300.202515,78.295074 301.931854,79.589706 303.547150,80.987381 
	C303.942200,80.603035 304.337250,80.218689 304.732300,79.834343 
	C304.183594,78.372757 303.634888,76.911171 302.854370,74.796875 
z"/>
<path fill="#4AA6CC" opacity="1.000000" stroke="none" 
	d="
M15.123856,228.964874 
	C-1.047436,180.270935 3.954877,133.714844 29.869041,89.099953 
	C30.716785,89.031693 30.930492,89.069641 31.040894,89.443634 
	C28.547873,94.677170 25.776102,99.429726 23.851183,104.503548 
	C20.286880,113.898582 17.217983,123.481567 13.736389,133.293198 
	C11.688655,144.522308 9.375214,155.393005 8.176000,166.385239 
	C7.408373,173.421463 7.449119,180.775864 8.604052,187.742844 
	C10.844233,201.256409 14.125430,214.597397 16.739109,228.120209 
	C16.043247,228.475311 15.583550,228.720093 15.123856,228.964874 
z"/>
<path fill="#52AACF" opacity="1.000000" stroke="none" 
	d="
M85.263046,314.913910 
	C86.042702,315.749237 86.822350,316.584564 87.729652,317.880920 
	C87.857300,318.341980 87.843285,318.802246 87.843285,318.802246 
	C72.724304,310.179504 59.000336,299.810242 48.441887,285.824097 
	C40.763786,275.653351 33.609005,265.087494 26.490967,254.349228 
	C27.165232,254.002396 27.569429,254.004150 28.208855,254.248993 
	C31.633104,259.329926 34.822124,264.167755 38.075169,269.281189 
	C38.420647,270.040527 38.702099,270.524292 39.153378,271.294983 
	C41.477257,273.753632 43.631313,275.925385 45.845535,278.425598 
	C46.598091,279.835510 47.290485,280.916962 48.157806,282.282898 
	C50.885128,285.385529 53.437527,288.203705 56.166878,291.302948 
	C63.929405,298.087524 71.462128,304.654724 79.152328,311.032043 
	C80.441620,312.101196 82.413284,312.347534 84.069656,312.974060 
	C84.069656,312.974060 84.014763,313.000366 84.088478,313.261841 
	C84.529144,313.986847 84.896095,314.450378 85.263046,314.913910 
z"/>
<path fill="#1368A4" opacity="1.000000" stroke="none" 
	d="
M279.015625,305.021301 
	C281.283447,302.904755 283.814026,301.004791 285.770294,298.631439 
	C291.885956,291.211914 297.725494,283.565338 303.799255,276.110413 
	C305.960358,273.457855 308.486023,271.102325 311.117493,268.016296 
	C313.158783,266.201477 314.927856,264.981628 317.018860,263.862457 
	C317.555267,264.030731 317.769745,264.098358 317.984192,264.165955 
	C312.718750,271.185822 307.907745,278.614197 302.064728,285.114899 
	C295.762604,292.126434 288.494629,298.269836 281.003113,304.921783 
	C279.910706,305.041504 279.463165,305.031403 279.015625,305.021301 
z"/>
<path fill="#2B7FAE" opacity="1.000000" stroke="none" 
	d="
M318.299255,263.984741 
	C317.769745,264.098358 317.555267,264.030731 317.116638,263.522217 
	C317.493500,261.716248 317.968109,260.277405 318.714966,258.997437 
	C326.722626,245.273865 332.795502,230.779205 336.263336,215.240173 
	C337.842621,208.163528 339.375031,201.076401 341.242371,193.996506 
	C341.974335,194.000534 342.392609,194.002075 342.810883,194.003632 
	C339.904846,217.460373 332.987915,239.565048 320.651184,259.850616 
	C319.882904,261.113953 319.289215,262.483398 318.299255,263.984741 
z"/>
<path fill="#1C6293" opacity="1.000000" stroke="none" 
	d="
M154.179077,341.313904 
	C155.241486,340.808319 156.500198,340.489655 157.767181,340.452545 
	C170.666458,340.074829 183.673294,340.640717 196.435654,339.130615 
	C207.826324,337.782898 218.938538,334.116669 230.201157,331.596558 
	C231.301590,331.350311 232.595428,331.968414 233.968872,332.481323 
	C225.316650,335.258209 216.569672,338.056946 207.657028,340.150299 
	C191.673706,343.904419 175.357666,343.048218 159.117630,342.843475 
	C157.533310,342.823517 155.958450,342.053406 154.179077,341.313904 
z"/>
<path fill="#4095BF" opacity="1.000000" stroke="none" 
	d="
M31.144203,89.107582 
	C30.930492,89.069641 30.716785,89.031693 30.182726,88.938110 
	C33.938377,82.705353 37.565403,76.167198 42.182636,70.425293 
	C52.195053,57.974026 63.867470,47.153896 76.804588,37.742886 
	C77.835831,36.992718 79.103783,36.567959 80.624237,35.962009 
	C78.912956,37.919907 76.845146,39.914066 74.763382,41.893555 
	C73.230423,43.351196 71.679245,44.789673 69.709900,46.661156 
	C57.318527,55.034218 48.498402,66.038307 40.070156,77.382240 
	C38.342854,79.707092 37.269844,82.518066 35.673012,85.310257 
	C34.015259,86.712891 32.579731,87.910240 31.144203,89.107582 
z"/>
<path fill="#2D84B2" opacity="1.000000" stroke="none" 
	d="
M322.044678,97.956886 
	C321.697815,96.179573 321.350922,94.402260 320.985718,92.231300 
	C324.665436,99.027557 328.696960,106.068588 331.987335,113.440437 
	C337.666656,126.164459 340.538635,139.722839 342.664215,153.430771 
	C343.265747,157.310120 343.501343,161.246216 343.558167,165.571640 
	C342.804504,165.983795 342.397430,165.980606 341.904907,165.580307 
	C340.558319,156.663376 340.108032,147.920685 337.842224,139.677017 
	C334.610687,127.919678 330.048279,116.528122 325.976685,104.638748 
	C324.609772,102.188683 323.320496,100.080200 322.023743,97.974792 
	C322.016296,97.977859 322.044678,97.956886 322.044678,97.956886 
z"/>
<path fill="#4095BF" opacity="1.000000" stroke="none" 
	d="
M191.619232,8.104932 
	C189.566483,8.453795 187.070694,9.129568 184.664017,8.894179 
	C166.045624,7.073171 147.959061,10.069437 130.080902,14.794737 
	C125.291382,16.060635 120.711868,18.104036 115.987785,19.642628 
	C113.977699,20.297295 111.843819,20.571875 109.344452,21.017342 
	C118.333015,17.655771 127.520721,13.226122 137.210587,11.210085 
	C149.032471,8.750469 161.254181,8.012157 173.347031,7.141010 
	C179.252350,6.715601 185.257507,7.676411 191.619232,8.104932 
z"/>
<path fill="#1C6293" opacity="1.000000" stroke="none" 
	d="
M88.172333,318.954468 
	C87.843285,318.802246 87.857300,318.341980 87.896500,318.113739 
	C94.809738,321.090607 101.455933,324.984009 108.607277,327.351471 
	C121.782898,331.713287 135.257874,335.169708 148.599091,339.034546 
	C149.662247,339.342529 150.655685,339.891174 151.847260,340.664398 
	C145.815247,340.027374 139.507385,339.497772 133.441498,337.992828 
	C118.476547,334.280060 104.175232,328.735413 90.786812,320.993988 
	C89.943275,320.506226 89.259491,319.742157 88.172333,318.954468 
z"/>
<path fill="#296A98" opacity="1.000000" stroke="none" 
	d="
M236.998627,329.944702 
	C243.058212,326.897247 249.128586,323.871002 255.173752,320.795227 
	C259.558533,318.564240 263.910004,316.267670 268.661835,314.008545 
	C261.912598,318.326324 254.855148,322.772369 247.606476,326.881012 
	C244.536469,328.621155 241.064682,329.652466 237.391083,330.767609 
	C237.003998,330.334381 237.001312,330.139526 236.998627,329.944702 
z"/>
<path fill="#4095BF" opacity="1.000000" stroke="none" 
	d="
M107.881592,21.109665 
	C102.352127,24.710995 96.484375,28.288916 90.510742,31.680372 
	C87.673531,33.291164 84.634415,34.546314 81.310638,35.970909 
	C89.789627,30.989403 98.644737,25.999565 107.881592,21.109665 
z"/>
<path fill="#257BAC" opacity="1.000000" stroke="none" 
	d="
M341.990356,165.977417 
	C342.397430,165.980606 342.804504,165.983795 343.516846,165.989288 
	C343.532074,175.038208 343.242035,184.084824 342.881439,193.567535 
	C342.392609,194.002075 341.974335,194.000534 341.253052,193.558945 
	C341.296844,184.071732 341.643616,175.024582 341.990356,165.977417 
z"/>
<path fill="#4FA7CA" opacity="1.000000" stroke="none" 
	d="
M27.973625,254.005905 
	C27.569429,254.004150 27.165232,254.002396 26.457882,254.000229 
	C23.095308,246.946793 20.035885,239.893753 17.047409,232.360764 
	C17.118355,231.880798 17.299450,231.699677 17.566692,231.908356 
	C21.213829,239.413330 24.593727,246.709625 27.973625,254.005905 
z"/>
<path fill="#0F84C7" opacity="1.000000" stroke="none" 
	d="
M310.042816,77.995628 
	C306.749451,77.557381 304.193085,76.624275 306.818298,72.317856 
	C307.453796,72.157654 307.635132,72.196533 307.816467,72.235420 
	C307.816467,72.235420 307.936493,72.564789 308.103333,72.953873 
	C308.531769,73.562241 308.793427,73.781525 309.055054,74.000809 
	C309.055054,74.000809 308.992310,74.007210 309.130981,74.188507 
	C309.533478,74.573082 309.797363,74.776367 310.061218,74.979645 
	C310.061218,74.979645 310.004669,74.960815 310.004272,75.331390 
	C310.016846,76.466522 310.029816,77.231071 310.042816,77.995628 
z"/>
<path fill="#2C81AF" opacity="1.000000" stroke="none" 
	d="
M273.918396,38.626999 
	C271.854828,38.098152 269.669891,37.239777 267.162537,36.225964 
	C266.566162,35.586185 266.292175,35.101845 265.991394,34.336838 
	C268.575378,35.469936 271.186218,36.883701 273.918396,38.626999 
z"/>
<path fill="#296A98" opacity="1.000000" stroke="none" 
	d="
M278.776733,305.247742 
	C279.463165,305.031403 279.910706,305.041504 280.692719,305.065369 
	C279.267426,306.746460 277.507660,308.413757 275.386047,310.067383 
	C276.195435,308.527191 277.366638,307.000702 278.776733,305.247742 
z"/>
<path fill="#4095BF" opacity="1.000000" stroke="none" 
	d="
M210.962921,10.660227 
	C207.960510,10.571925 204.760666,10.118175 201.258301,9.441032 
	C204.225677,9.576687 207.495575,9.935734 210.962921,10.660227 
z"/>
<path fill="#2D84B2" opacity="1.000000" stroke="none" 
	d="
M310.058044,78.224022 
	C310.029816,77.231071 310.016846,76.466522 310.032074,75.320618 
	C311.381134,76.703629 312.701965,78.467972 313.962799,80.659416 
	C313.902802,81.086517 313.737518,81.234871 313.462799,81.097534 
	C312.153778,80.276817 311.119507,79.593430 310.085205,78.910049 
	C310.085205,78.910057 310.073303,78.452415 310.058044,78.224022 
z"/>
<path fill="#2C81AF" opacity="1.000000" stroke="none" 
	d="
M283.944092,46.644623 
	C282.764343,46.188522 281.469788,45.410862 280.087891,44.294533 
	C281.276794,44.744930 282.553040,45.534000 283.944092,46.644623 
z"/>
<path fill="#2C81AF" opacity="1.000000" stroke="none" 
	d="
M278.937317,42.654976 
	C277.759491,42.196285 276.467957,41.415188 275.087097,40.297188 
	C276.273041,40.751049 277.548309,41.541809 278.937317,42.654976 
z"/>
<path fill="#2D84B2" opacity="1.000000" stroke="none" 
	d="
M304.992798,68.667381 
	C304.245544,68.747223 303.448456,68.493935 302.369598,68.104172 
	C302.057281,67.212845 302.026703,66.457993 302.021973,65.325821 
	C303.012909,66.077087 303.977936,67.205673 304.992798,68.667381 
z"/>
<path fill="#4095BF" opacity="1.000000" stroke="none" 
	d="
M236.967346,18.681057 
	C235.823395,18.611837 234.529007,18.213062 233.048538,17.521137 
	C234.180603,17.602491 235.498749,17.976997 236.967346,18.681057 
z"/>
<path fill="#2C81AF" opacity="1.000000" stroke="none" 
	d="
M262.019257,30.632164 
	C260.869293,30.498043 259.592133,30.034952 258.183716,29.245600 
	C259.332306,29.380623 260.612183,29.841909 262.019257,30.632164 
z"/>
<path fill="#296A98" opacity="1.000000" stroke="none" 
	d="
M272.332642,312.039917 
	C272.789307,311.375824 273.577393,310.709869 274.705200,310.038330 
	C274.251312,310.701172 273.457672,311.369598 272.332642,312.039917 
z"/>
<path fill="#296A98" opacity="1.000000" stroke="none" 
	d="
M269.335327,314.040894 
	C269.790375,313.380524 270.577057,312.710968 271.702576,312.026794 
	C271.249939,312.685364 270.458435,313.358521 269.335327,314.040894 
z"/>
<path fill="#2D84B2" opacity="1.000000" stroke="none" 
	d="
M318.040894,86.642944 
	C317.393707,86.192505 316.726074,85.403816 316.038391,84.277847 
	C316.685730,84.728607 317.353088,85.516655 318.040894,86.642944 
z"/>
<path fill="#2D84B2" opacity="1.000000" stroke="none" 
	d="
M316.037323,83.642487 
	C315.620667,83.976860 315.180054,83.977547 314.382019,83.626335 
	C313.928894,82.594574 313.833221,81.914726 313.737518,81.234871 
	C313.737518,81.234871 313.902802,81.086517 313.985413,81.012314 
	C314.716492,81.728340 315.364960,82.518578 316.037323,83.642487 
z"/>
<path fill="#4095BF" opacity="1.000000" stroke="none" 
	d="
M199.983109,8.661167 
	C198.661011,8.865685 197.151230,8.706897 195.305374,8.375874 
	C196.578018,8.235046 198.186707,8.266454 199.983109,8.661167 
z"/>
<path fill="#4095BF" opacity="1.000000" stroke="none" 
	d="
M215.012390,11.716292 
	C214.460022,11.839562 213.780502,11.653649 213.047729,11.216320 
	C213.624725,11.112307 214.254990,11.259708 215.012390,11.716292 
z"/>
<path fill="#4FA7CA" opacity="1.000000" stroke="none" 
	d="
M15.130888,229.265259 
	C15.583550,228.720093 16.043247,228.475311 16.766891,228.495361 
	C17.054167,229.513138 17.077492,230.266083 16.873405,231.013306 
	C16.645994,231.007568 16.191072,231.001175 16.191069,231.001175 
	C15.840017,230.522675 15.488971,230.044159 15.130888,229.265259 
z"/>
<path fill="#2D84B2" opacity="1.000000" stroke="none" 
	d="
M289.980469,52.671013 
	C289.424103,52.512486 288.821136,52.019802 288.119873,51.238159 
	C288.659027,51.411755 289.296478,51.874306 289.980469,52.671013 
z"/>
<path fill="#4095BF" opacity="1.000000" stroke="none" 
	d="
M223.013214,13.695866 
	C222.453430,13.910681 221.751678,13.797050 220.939178,13.454302 
	C221.509369,13.272595 222.190323,13.320007 223.013214,13.695866 
z"/>
<path fill="#4095BF" opacity="1.000000" stroke="none" 
	d="
M218.984009,12.664654 
	C218.436966,12.881351 217.755295,12.777645 216.965027,12.449640 
	C217.520752,12.264977 218.185043,12.304614 218.984009,12.664654 
z"/>
<path fill="#1C6293" opacity="1.000000" stroke="none" 
	d="
M236.705383,330.056213 
	C237.001312,330.139526 237.003998,330.334381 237.014496,330.821533 
	C236.543304,331.408234 236.064301,331.702637 235.290863,332.055664 
	C235.468307,331.465424 235.940216,330.816559 236.705383,330.056213 
z"/>
<path fill="#4095BF" opacity="1.000000" stroke="none" 
	d="
M229.000854,15.713133 
	C228.567001,15.869492 227.993378,15.714915 227.171570,15.390201 
	C227.569275,15.280773 228.215179,15.341485 229.000854,15.713133 
z"/>
<path fill="#4095BF" opacity="1.000000" stroke="none" 
	d="
M226.031982,14.726267 
	C225.830887,14.852824 225.527130,14.690260 225.027130,14.355284 
	C225.197021,14.267631 225.563171,14.352387 226.031982,14.726267 
z"/>
<path fill="#4095BF" opacity="1.000000" stroke="none" 
	d="
M212.959244,10.752167 
	C212.847626,11.004708 212.668396,11.013186 212.219543,11.013439 
	C212.263809,10.839510 212.577728,10.673806 212.959244,10.752167 
z"/>
<path fill="#4AA6CC" opacity="1.000000" stroke="none" 
	d="
M16.158449,231.252808 
	C16.191072,231.001175 16.645994,231.007568 16.918045,231.184647 
	C17.190098,231.361725 17.299450,231.699677 17.299450,231.699677 
	C17.299450,231.699677 17.118355,231.880798 17.027220,231.970825 
	C16.665998,231.875381 16.395912,231.689896 16.158449,231.252808 
z"/>
<path fill="#4095BF" opacity="1.000000" stroke="none" 
	d="
M193.987610,7.734440 
	C193.878403,7.985515 193.688980,7.990411 193.215210,7.987147 
	C193.256378,7.815412 193.581894,7.651836 193.987610,7.734440 
z"/>
<path fill="#1C6293" opacity="1.000000" stroke="none" 
	d="
M152.070282,341.204102 
	C152.166748,340.982880 152.334061,340.976166 152.752716,340.976746 
	C152.716385,341.128906 152.428741,341.273773 152.070282,341.204102 
z"/>
<path fill="#2C81AF" opacity="1.000000" stroke="none" 
	d="
M279.966797,43.751572 
	C279.787750,43.794922 279.528931,43.581947 279.135651,43.154816 
	C279.296448,43.125515 279.591736,43.310375 279.966797,43.751572 
z"/>
<path fill="#2D84B2" opacity="1.000000" stroke="none" 
	d="
M296.955627,59.773209 
	C296.786438,59.813053 296.529144,59.600853 296.127625,59.182854 
	C296.278107,59.158424 296.572815,59.339794 296.955627,59.773209 
z"/>
<path fill="#2D84B2" opacity="1.000000" stroke="none" 
	d="
M295.941071,58.765633 
	C295.733948,58.849621 295.482697,58.638290 295.127930,58.178970 
	C295.277679,58.155457 295.568542,58.335236 295.941071,58.765633 
z"/>
<path fill="#2D84B2" opacity="1.000000" stroke="none" 
	d="
M294.942688,57.762604 
	C294.738098,57.842823 294.488556,57.630157 294.133148,57.172977 
	C294.281372,57.151230 294.571533,57.331650 294.942688,57.762604 
z"/>
<path fill="#2D84B2" opacity="1.000000" stroke="none" 
	d="
M293.945068,56.758957 
	C293.742035,56.839546 293.491180,56.628307 293.133392,56.172852 
	C293.280792,56.150753 293.571075,56.330254 293.945068,56.758957 
z"/>
<path fill="#2D84B2" opacity="1.000000" stroke="none" 
	d="
M292.942932,55.758514 
	C292.738983,55.837872 292.486053,55.623695 292.126617,55.161469 
	C292.274902,55.140396 292.566162,55.324257 292.942932,55.758514 
z"/>
<path fill="#2D84B2" opacity="1.000000" stroke="none" 
	d="
M290.952881,53.767227 
	C290.787476,53.803539 290.532684,53.590549 290.133728,53.173096 
	C290.280853,53.151730 290.572174,53.334831 290.952881,53.767227 
z"/>
<path fill="#2C81AF" opacity="1.000000" stroke="none" 
	d="
M287.969238,50.733902 
	C287.804413,50.773987 287.543457,50.568138 287.137329,50.157658 
	C287.285828,50.131344 287.579437,50.309658 287.969238,50.733902 
z"/>
<path fill="#2C81AF" opacity="1.000000" stroke="none" 
	d="
M286.960144,49.749649 
	C286.785522,49.788174 286.525604,49.569954 286.124451,49.137966 
	C286.280426,49.113766 286.577637,49.303337 286.960144,49.749649 
z"/>
<path fill="#2C81AF" opacity="1.000000" stroke="none" 
	d="
M285.009644,47.756485 
	C284.830872,47.801403 284.560669,47.585575 284.147034,47.152039 
	C284.308502,47.121468 284.613373,47.308605 285.009644,47.756485 
z"/>
<path fill="#2D84B2" opacity="1.000000" stroke="none" 
	d="
M298.958740,61.750313 
	C298.779419,61.793900 298.517517,61.578423 298.114380,61.149071 
	C298.274139,61.120548 298.575165,61.305897 298.958740,61.750313 
z"/>
<path fill="#2C81AF" opacity="1.000000" stroke="none" 
	d="
M274.969482,39.753517 
	C274.736206,39.860954 274.478912,39.652763 274.143036,39.170303 
	C274.310669,39.135281 274.604340,39.315899 274.969482,39.753517 
z"/>
<path fill="#4095BF" opacity="1.000000" stroke="none" 
	d="
M242.028183,20.728708 
	C241.823502,20.855671 241.526657,20.692198 241.041458,20.353867 
	C241.214081,20.265427 241.575043,20.351849 242.028183,20.728708 
z"/>
<path fill="#2C81AF" opacity="1.000000" stroke="none" 
	d="
M264.967163,32.732262 
	C264.712524,32.945538 264.448273,32.801460 264.080383,32.400791 
	C264.258911,32.303139 264.585876,32.380039 264.967163,32.732262 
z"/>
<path fill="#2C81AF" opacity="1.000000" stroke="none" 
	d="
M257.997620,28.679956 
	C257.765625,28.867733 257.494415,28.714760 257.090637,28.329500 
	C257.251984,28.248007 257.585419,28.328671 257.997620,28.679956 
z"/>
<path fill="#4095BF" opacity="1.000000" stroke="none" 
	d="
M253.057617,25.719208 
	C252.842834,25.860308 252.518402,25.695271 251.984802,25.349998 
	C252.166397,25.250862 252.557190,25.331966 253.057617,25.719208 
z"/>
<path fill="#4095BF" opacity="1.000000" stroke="none" 
	d="
M251.064438,24.719303 
	C250.853867,24.859516 250.534714,24.696846 250.009979,24.356689 
	C250.188217,24.258278 250.572037,24.337349 251.064438,24.719303 
z"/>
<path fill="#4095BF" opacity="1.000000" stroke="none" 
	d="
M249.041992,23.725986 
	C248.827057,23.869465 248.507645,23.709684 247.985199,23.370567 
	C248.167282,23.268394 248.552383,23.345560 249.041992,23.725986 
z"/>
<path fill="#4095BF" opacity="1.000000" stroke="none" 
	d="
M245.997070,22.737473 
	C245.781403,22.907888 245.507324,22.756235 245.099121,22.375509 
	C245.255493,22.297647 245.580032,22.387302 245.997070,22.737473 
z"/>
<path fill="#4095BF" opacity="1.000000" stroke="none" 
	d="
M244.020966,21.732277 
	C243.796844,21.925795 243.503021,21.778973 243.062744,21.392078 
	C243.227264,21.300064 243.572250,21.380041 244.020966,21.732277 
z"/>
<path fill="#2D84B2" opacity="1.000000" stroke="none" 
	d="
M309.988098,74.718048 
	C309.797363,74.776367 309.533478,74.573082 309.134583,74.157181 
	C309.304688,74.115196 309.609863,74.285820 309.988098,74.718048 
z"/>
<path fill="#4095BF" opacity="1.000000" stroke="none" 
	d="
M232.032730,16.726574 
	C231.835312,16.852142 231.537292,16.693737 231.050018,16.363136 
	C231.217896,16.274828 231.575012,16.358715 232.032730,16.726574 
z"/>
<path fill="#2D84B2" opacity="1.000000" stroke="none" 
	d="
M320.917236,90.898285 
	C320.625641,90.919594 320.404968,90.616173 320.090027,90.046822 
	C320.326508,90.045113 320.657318,90.309334 320.917236,90.898285 
z"/>
<path fill="#2D84B2" opacity="1.000000" stroke="none" 
	d="
M318.863953,87.877716 
	C318.560303,87.945045 318.356903,87.688194 318.102539,87.170959 
	C318.314728,87.157402 318.618927,87.371719 318.863953,87.877716 
z"/>
<path fill="#2D84B2" opacity="1.000000" stroke="none" 
	d="
M308.971497,73.740997 
	C308.793427,73.781525 308.531769,73.562241 308.128540,73.127319 
	C308.287292,73.101524 308.587646,73.291359 308.971497,73.740997 
z"/>
<path fill="#2D84B2" opacity="1.000000" stroke="none" 
	d="
M307.883728,71.940140 
	C307.635132,72.196533 307.453796,72.157654 306.997620,72.061134 
	C306.777771,71.826408 306.832764,71.649323 306.979919,71.209885 
	C307.365082,71.179962 307.658051,71.412415 307.883728,71.940140 
z"/>
<path fill="#2D84B2" opacity="1.000000" stroke="none" 
	d="
M306.992798,70.714455 
	C306.795898,70.776917 306.531128,70.574608 306.134216,70.157608 
	C306.309692,70.111839 306.617310,70.280762 306.992798,70.714455 
z"/>
<path fill="#2D84B2" opacity="1.000000" stroke="none" 
	d="
M305.972534,69.741051 
	C305.792755,69.790909 305.527710,69.585587 305.125183,69.167206 
	C305.287567,69.131386 305.587433,69.308632 305.972534,69.741051 
z"/>
<path fill="#4095BF" opacity="1.000000" stroke="none" 
	d="
M240.062012,19.712461 
	C239.848694,19.850986 239.522034,19.683683 238.982635,19.336798 
	C239.162842,19.240355 239.555740,19.323494 240.062012,19.712461 
z"/>
<path fill="#2D84B2" opacity="1.000000" stroke="none" 
	d="
M301.984802,64.708679 
	C301.834503,64.971207 301.616608,64.987503 301.076172,64.801224 
	C300.753601,64.598648 300.702393,64.202957 300.798309,64.134979 
	C300.894226,64.067009 301.081055,63.924252 301.081055,63.924255 
	C301.359772,64.103645 301.638489,64.283035 301.984802,64.708679 
z"/>
<path fill="#2D84B2" opacity="1.000000" stroke="none" 
	d="
M300.055634,62.930054 
	C300.339630,63.101486 300.623627,63.272919 300.994324,63.684299 
	C301.081055,63.924252 300.894226,64.067009 300.652374,63.977959 
	C300.210297,63.683796 300.008179,63.480560 299.866638,63.191650 
	C299.929138,63.104092 300.055634,62.930054 300.055634,62.930054 
z"/>
<path fill="#2D84B2" opacity="1.000000" stroke="none" 
	d="
M298.856415,63.137058 
	C298.882324,62.942932 298.908264,62.748802 298.972473,62.263184 
	C299.298157,62.132866 299.585571,62.294041 299.964294,62.692635 
	C300.055634,62.930054 299.929138,63.104092 299.631897,63.143997 
	C299.334686,63.183899 298.856415,63.137058 298.856415,63.137058 
z"/>
<path fill="#0D86CA" opacity="1.000000" stroke="none" 
	d="
M341.904877,165.580307 
	C341.643616,175.024582 341.296844,184.071732 340.939392,193.556458 
	C339.375031,201.076401 337.842621,208.163528 336.263336,215.240173 
	C332.795502,230.779205 326.722626,245.273865 318.714966,258.997437 
	C317.968109,260.277405 317.493500,261.716248 316.794739,263.421570 
	C314.927856,264.981628 313.158783,266.201477 311.194275,267.677368 
	C302.498718,271.440643 293.998535,274.947876 284.903992,278.693390 
	C283.870209,278.918640 283.430756,278.905640 282.798035,278.566223 
	C279.739014,277.825531 276.853210,277.516205 274.011871,276.973907 
	C268.952759,276.008331 263.344940,276.251404 259.927338,271.282867 
	C257.223755,267.352478 256.053711,267.366058 252.100616,270.520630 
	C250.603836,271.715088 248.371246,272.279327 246.397629,272.530609 
	C240.082230,273.334595 233.644180,273.410889 227.419617,274.622040 
	C221.858932,275.704010 217.360184,274.904999 216.084579,272.086029 
	C218.215073,269.499786 221.200180,267.500488 221.679230,265.017670 
	C223.936340,253.319519 219.323349,248.432632 207.435272,249.072006 
	C206.608459,249.116470 205.597992,249.601318 205.008377,249.275070 
	C204.174530,248.813705 203.653320,247.787292 202.998047,246.670364 
	C202.993988,245.895798 202.990372,245.453262 203.327484,244.912659 
	C206.861404,243.067810 210.101715,241.401413 213.240143,239.561264 
	C234.217300,227.261841 245.615997,208.481918 250.039337,185.006241 
	C264.507751,171.564301 274.515259,155.233109 279.743683,136.322342 
	C282.687714,125.674225 284.611694,114.612068 285.631989,103.610008 
	C286.324829,96.139008 284.651642,88.448578 284.324646,80.357025 
	C285.075165,78.905327 285.537567,77.952881 286.000000,77.000427 
	C286.000214,76.555901 286.000427,76.111374 286.276581,75.265251 
	C287.035004,74.575447 287.517517,74.287231 288.000000,73.999016 
	C288.792328,74.292389 289.584656,74.585770 290.688477,74.939728 
	C292.066345,75.936447 293.130920,76.874603 294.199493,77.808174 
	C295.474487,78.922066 296.749359,80.036171 298.030762,81.142662 
	C299.807098,82.676521 301.589447,84.203407 303.015442,85.919205 
	C307.921234,91.635742 312.827026,97.352272 317.716064,103.049286 
	C319.012238,101.266685 320.168335,99.676735 321.684570,98.021835 
	C322.044678,97.956886 322.016296,97.977859 322.017517,98.371399 
	C321.907593,101.782326 322.571014,104.296799 326.054352,104.980324 
	C330.048279,116.528122 334.610687,127.919678 337.842224,139.677017 
	C340.108032,147.920685 340.558319,156.663376 341.904877,165.580307 
z"/>
<path fill="#000000" opacity="1.000000" stroke="none" 
	d="
M249.187103,171.995789 
	C249.141144,174.691818 249.095169,177.387833 248.935913,180.857712 
	C248.271942,184.185867 247.868607,186.782654 247.146713,189.287598 
	C242.491211,205.441971 235.283600,219.871384 221.809784,230.865570 
	C212.705276,238.294556 203.132706,244.077774 191.455811,245.954224 
	C184.344833,247.096954 177.212845,248.108932 169.724792,248.998383 
	C161.586395,246.878281 153.813507,244.939407 146.040619,243.000549 
	C146.040619,243.000534 146.029053,242.967682 145.840118,242.662872 
	C141.109558,239.921280 136.567902,237.484497 132.026260,235.047714 
	C132.026260,235.047714 132.024567,234.977249 131.867188,234.659332 
	C129.729568,232.652374 127.623665,231.088348 125.794228,229.249313 
	C121.471504,224.903793 117.280289,220.427460 113.035889,216.004044 
	C113.035889,216.004044 113.024918,215.978027 112.997742,215.609131 
	C109.638855,207.188492 105.655464,199.331772 103.169792,191.026794 
	C100.952408,183.618225 100.390450,175.714188 99.422325,167.836945 
	C101.170921,162.817856 102.595169,157.990631 104.343887,152.992935 
	C107.451706,147.185837 109.824135,141.296936 113.099022,135.962006 
	C121.390511,122.454803 133.024628,112.730141 147.727692,106.632576 
	C157.810806,102.450966 168.342392,101.683365 179.489166,101.903839 
	C187.705032,103.663437 195.771042,104.554123 203.194626,107.228218 
	C215.385468,111.619553 224.837021,120.192520 233.164520,130.339188 
	C237.441620,139.039734 242.176758,147.197021 245.775635,155.828094 
	C247.858383,160.823029 248.110901,166.581146 249.187103,171.995789 
M197.907028,147.480957 
	C197.603592,147.296371 197.300140,147.111771 196.996414,146.994171 
	C196.996414,146.994171 197.062012,146.980545 196.833313,146.346970 
	C195.888535,145.883698 194.943756,145.420425 193.993607,145.004684 
	C193.993607,145.004684 194.041412,145.006012 193.888657,144.454590 
	C193.548187,144.378525 193.207703,144.302475 192.482971,144.088943 
	C192.482971,144.088943 192.082214,144.011780 191.900940,143.485214 
	C191.574463,143.399429 191.247971,143.313644 190.522522,143.086945 
	C190.522522,143.086945 190.106537,143.009552 189.755798,142.322205 
	C180.902420,138.687408 172.028275,137.616226 162.693680,140.899155 
	C145.615417,146.905487 134.748779,165.160614 139.546906,183.442459 
	C144.690002,203.038651 167.410080,215.448822 188.375595,207.920532 
	C201.562363,203.185425 212.650909,187.338577 210.958023,175.213776 
	C210.910812,173.789246 210.863602,172.364716 210.965866,170.136017 
	C208.972961,165.387405 206.980057,160.638794 204.933670,155.521851 
	C204.933670,155.521851 204.822815,155.166550 204.961319,154.572006 
	C204.647263,154.354614 204.333221,154.137222 204.006165,153.991776 
	C204.006165,153.991776 204.079178,153.987717 203.921371,153.460037 
	C203.611649,153.288223 203.301910,153.116394 202.995575,153.007126 
	C202.995575,153.007126 203.058182,153.005234 202.891296,152.489700 
	C202.588943,152.313507 202.286591,152.137314 201.988937,152.010590 
	C201.988937,152.010590 202.038422,152.015228 201.889465,151.493637 
	C201.588989,151.312363 201.288513,151.131104 200.990768,151.008698 
	C200.990768,151.008698 201.049606,151.011673 200.890656,150.492722 
	C200.589798,150.311462 200.288940,150.130203 199.990845,150.008499 
	C199.990845,150.008499 200.050385,150.011429 199.891418,149.492645 
	C199.591064,149.310333 199.290695,149.128021 198.991745,149.007172 
	C198.991745,149.007172 199.053131,149.010178 198.896439,148.487671 
	C198.594818,148.303513 198.293182,148.119339 197.993774,148.003952 
	C197.993774,148.003952 198.062500,148.007141 197.907028,147.480957 
z"/>
<path fill="#1F99D8" opacity="1.000000" stroke="none" 
	d="
M35.895241,85.104965 
	C37.269844,82.518066 38.342854,79.707092 40.070156,77.382240 
	C48.498402,66.038307 57.318527,55.034218 69.614761,46.983295 
	C69.962059,48.044106 70.010963,49.207863 69.989197,50.370293 
	C69.809502,59.964134 70.244026,60.828693 80.151794,61.777660 
	C86.348953,62.371223 92.668282,61.982712 98.915794,61.681915 
	C106.522690,61.315674 114.138580,59.940723 121.697685,60.258862 
	C125.754425,60.429600 129.993912,62.754177 133.622253,64.971840 
	C138.206406,67.773697 141.902435,72.113853 146.606293,74.615990 
	C155.002472,79.082184 164.419586,80.131905 173.820465,80.245674 
	C178.471878,80.301964 179.982498,83.466446 180.716614,86.766426 
	C181.941162,92.270958 184.003006,95.422867 190.458878,95.694633 
	C193.008850,95.801987 195.387161,99.987045 197.556610,102.576462 
	C191.147018,101.611382 185.024475,100.385216 178.582520,99.119873 
	C177.833588,99.042061 177.404053,99.003433 176.799683,98.682953 
	C175.062119,96.921318 173.538803,95.397163 171.930206,93.969055 
	C162.386978,85.496567 150.743195,80.961693 139.037354,76.600967 
	C113.134094,66.951347 86.913071,65.066429 60.542999,74.411507 
	C52.121517,77.395935 44.099846,81.508560 35.895241,85.104965 
z"/>
<path fill="#3086B2" opacity="1.000000" stroke="none" 
	d="
M170.090302,249.179626 
	C177.212845,248.108932 184.344833,247.096954 191.455811,245.954224 
	C203.132706,244.077774 212.705276,238.294556 221.809784,230.865570 
	C235.283600,219.871384 242.491211,205.441971 247.146713,189.287598 
	C247.868607,186.782654 248.271942,184.185867 248.992874,181.301529 
	C249.443222,182.082291 249.723282,183.193069 250.021347,184.655060 
	C245.615997,208.481918 234.217300,227.261841 213.240143,239.561264 
	C210.101715,241.401413 206.861404,243.067810 202.949142,244.934647 
	C199.476883,246.017960 196.723694,246.981201 193.640884,247.958160 
	C192.872681,248.005371 192.434082,248.038879 191.591568,248.135239 
	C184.787888,248.816147 178.388138,249.434189 171.988388,250.052246 
	C171.579315,250.024902 171.170258,249.997543 170.435303,249.767212 
	C170.109406,249.564224 170.090302,249.179626 170.090302,249.179626 
z"/>
<path fill="#3E96C0" opacity="1.000000" stroke="none" 
	d="
M178.901917,99.159058 
	C185.024475,100.385216 191.147018,101.611382 197.642700,102.907593 
	C206.524521,107.630692 215.382019,111.763329 223.405411,117.140533 
	C227.902832,120.154648 231.019257,125.229347 234.595947,129.680359 
	C234.004608,129.988297 233.575256,129.991501 233.145889,129.994705 
	C224.837021,120.192520 215.385468,111.619553 203.194626,107.228218 
	C195.771042,104.554123 187.705032,103.663437 179.479248,101.567070 
	C178.987900,100.494667 178.944901,99.826859 178.901917,99.159058 
z"/>
<path fill="#4299C2" opacity="1.000000" stroke="none" 
	d="
M233.164520,130.339188 
	C233.575256,129.991501 234.004608,129.988297 234.757324,129.981567 
	C241.954788,136.886795 245.280670,145.729935 247.719055,154.789749 
	C249.139648,160.067963 248.995224,165.767380 249.371033,171.636536 
	C248.110901,166.581146 247.858383,160.823029 245.775635,155.828094 
	C242.176758,147.197021 237.441620,139.039734 233.164520,130.339188 
z"/>
<path fill="#0D85CA" opacity="1.000000" stroke="none" 
	d="
M285.631958,77.000244 
	C285.537567,77.952881 285.075165,78.905327 284.328247,79.925491 
	C283.787994,79.192345 283.532257,78.391464 283.168579,77.294281 
	C283.795074,76.998672 284.529510,76.999374 285.631958,77.000244 
z"/>
<path fill="#2FB0E9" opacity="1.000000" stroke="none" 
	d="
M35.673012,85.310257 
	C44.099846,81.508560 52.121517,77.395935 60.542999,74.411507 
	C86.913071,65.066429 113.134094,66.951347 139.037354,76.600967 
	C150.743195,80.961693 162.386978,85.496567 171.930206,93.969055 
	C173.538803,95.397163 175.062119,96.921318 176.340607,98.697220 
	C171.377213,99.344131 166.698029,99.694923 161.875244,99.698807 
	C159.676514,98.570015 157.607910,97.103836 155.568909,97.143906 
	C150.832596,97.236961 146.014282,98.892502 141.408127,98.361778 
	C136.145996,97.755463 132.869461,100.077789 129.569473,103.214180 
	C128.137772,104.574913 126.808388,106.043121 125.428055,107.458138 
	C120.322594,112.691910 114.382355,117.506653 116.002106,126.436737 
	C115.329079,127.497917 114.723747,128.264801 113.754959,129.098389 
	C106.336494,130.285049 103.027084,136.451385 98.217407,140.570343 
	C97.589203,141.108337 97.428841,142.783737 97.726768,143.716782 
	C99.761200,150.088196 99.819412,150.069611 92.916542,150.413589 
	C94.702469,156.229904 88.809998,163.483902 96.819931,168.250275 
	C94.345497,171.664688 92.021988,174.780197 89.698479,177.895706 
	C76.708801,193.443161 70.022301,211.738098 67.098732,231.449341 
	C62.808441,260.375336 68.645599,287.351776 83.987129,312.633057 
	C82.413284,312.347534 80.441620,312.101196 79.152328,311.032043 
	C71.462128,304.654724 63.929405,298.087524 56.315815,290.966736 
	C56.623001,287.960388 58.077518,284.873352 57.098709,283.303802 
	C52.969219,276.682129 47.643364,271.221222 38.983551,271.008057 
	C38.702099,270.524292 38.420647,270.040527 38.345074,269.070312 
	C38.573437,266.250732 39.243172,263.686066 38.505772,261.624756 
	C35.400078,252.943405 31.774773,244.448944 28.588835,235.794357 
	C27.972912,234.121201 28.552574,232.032272 28.441633,230.143295 
	C28.265102,227.137543 29.946354,223.270340 24.813356,222.444916 
	C24.106352,222.331207 23.351437,220.850403 23.094296,219.876907 
	C21.532854,213.965439 19.769081,208.075592 18.743250,202.064133 
	C17.862186,196.900986 17.073669,191.489670 17.682409,186.358719 
	C18.612131,178.522232 19.964022,170.864288 17.816236,163.013138 
	C16.288372,157.428101 14.974691,151.757706 14.050260,146.046936 
	C13.655859,143.610474 14.673653,140.976974 14.716963,138.427353 
	C14.747688,136.618561 14.220768,134.800308 13.942752,132.986267 
	C17.217983,123.481567 20.286880,113.898582 23.851183,104.503548 
	C25.776102,99.429726 28.547873,94.677170 31.040894,89.443634 
	C32.579731,87.910240 34.015259,86.712891 35.673012,85.310257 
z"/>
<path fill="#096AB1" opacity="1.000000" stroke="none" 
	d="
M251.999695,282.984833 
	C254.108292,284.319977 256.082550,285.988220 258.359253,286.906555 
	C261.252502,288.073608 264.776337,288.036987 267.289124,289.662140 
	C268.982086,290.757050 270.830048,294.669891 270.127899,295.866333 
	C267.480042,300.378479 263.493317,303.814301 258.034119,305.003021 
	C252.570557,306.192719 246.866425,306.869781 241.795059,309.016998 
	C239.287659,310.078613 237.966797,313.942627 236.109070,316.538696 
	C236.427856,316.809113 236.746628,317.079529 237.065399,317.349945 
	C236.598251,317.472137 235.905472,317.857086 235.696991,317.678070 
	C230.557449,313.264557 227.688599,317.103912 224.109192,320.314087 
	C222.202911,322.023743 218.719757,323.502655 216.442551,322.970551 
	C210.740997,321.638428 203.826569,324.843628 199.371704,318.181183 
	C195.913559,313.009338 191.657028,308.363617 187.667480,303.556976 
	C183.503784,298.540497 185.164505,293.169037 186.787994,287.929657 
	C187.204865,286.584381 188.983963,284.753906 190.185394,284.717102 
	C195.209198,284.563110 200.746109,283.754242 205.178680,285.505157 
	C213.190826,288.669952 221.192566,287.936340 229.242584,287.607330 
	C230.239716,287.566559 231.086853,283.856537 232.452332,281.411316 
	C239.267334,281.645538 245.633514,282.315186 251.999695,282.984833 
z"/>
<path fill="#1188CC" opacity="1.000000" stroke="none" 
	d="
M252.459290,282.978027 
	C245.633514,282.315186 239.267334,281.645538 232.453888,280.974915 
	C225.518051,278.819885 219.029465,276.665863 212.150635,273.995605 
	C210.156067,273.012939 208.551743,272.546539 206.947418,272.080139 
	C206.426636,271.879761 205.905853,271.679382 205.084167,270.932739 
	C202.809784,269.613495 200.836288,268.840515 198.862808,268.067566 
	C198.448364,268.054657 198.033920,268.041748 197.280380,267.648315 
	C193.268921,263.687653 189.627304,260.075104 185.905838,256.546814 
	C184.758209,255.458725 183.392715,254.600433 182.126984,253.636932 
	C182.332275,253.153915 182.537582,252.670898 182.742874,252.187866 
	C187.700272,254.478180 190.508194,252.566208 191.995499,248.072372 
	C192.434082,248.038879 192.872681,248.005371 193.920502,248.162720 
	C197.716888,250.186050 200.501282,249.494293 202.998489,247.002411 
	C203.653320,247.787292 204.174530,248.813705 205.008377,249.275070 
	C205.597992,249.601318 206.608459,249.116470 207.435272,249.072006 
	C219.323349,248.432632 223.936340,253.319519 221.679230,265.017670 
	C221.200180,267.500488 218.215073,269.499786 216.084579,272.086029 
	C217.360184,274.904999 221.858932,275.704010 227.419617,274.622040 
	C233.644180,273.410889 240.082230,273.334595 246.397629,272.530609 
	C248.371246,272.279327 250.603836,271.715088 252.100616,270.520630 
	C256.053711,267.366058 257.223755,267.352478 259.927338,271.282867 
	C263.344940,276.251404 268.952759,276.008331 274.011871,276.973907 
	C276.853210,277.516205 279.739014,277.825531 282.420105,278.625000 
	C280.489319,279.360687 278.743195,279.711243 276.997101,280.061798 
	C268.971039,281.031586 260.944977,282.001404 252.459290,282.978027 
z"/>
<path fill="#0A64A5" opacity="1.000000" stroke="none" 
	d="
M90.101761,177.924683 
	C92.021988,174.780197 94.345497,171.664688 97.174988,168.238663 
	C98.153297,167.961700 98.625633,167.995255 99.097969,168.028793 
	C100.390450,175.714188 100.952408,183.618225 103.169792,191.026794 
	C105.655464,199.331772 109.638855,207.188492 112.985138,215.602783 
	C110.014038,211.232925 106.499222,206.744400 104.177483,201.706055 
	C101.314796,195.493866 99.798889,188.661774 96.945938,182.444016 
	C96.005203,180.393768 92.718864,179.419769 90.101761,177.924683 
z"/>
<path fill="#1487CA" opacity="1.000000" stroke="none" 
	d="
M191.591568,248.135239 
	C190.508194,252.566208 187.700272,254.478180 182.742874,252.187866 
	C182.537582,252.670898 182.332275,253.153915 182.126984,253.636932 
	C183.392715,254.600433 184.758209,255.458725 185.905838,256.546814 
	C189.627304,260.075104 193.268921,263.687653 196.970261,267.624420 
	C188.777069,262.192474 180.554886,256.403870 172.160553,250.333740 
	C178.388138,249.434189 184.787888,248.816147 191.591568,248.135239 
z"/>
<path fill="#0A64A5" opacity="1.000000" stroke="none" 
	d="
M113.050568,216.365875 
	C117.280289,220.427460 121.471504,224.903793 125.794228,229.249313 
	C127.623665,231.088348 129.729568,232.652374 131.832001,234.657303 
	C130.480545,235.178452 129.010788,235.496735 127.531845,235.547394 
	C126.617020,235.578720 125.212509,235.520782 124.838860,234.961288 
	C120.821327,228.945541 116.965408,222.821854 113.050568,216.365875 
z"/>
<path fill="#0A64A5" opacity="1.000000" stroke="none" 
	d="
M169.724792,248.998383 
	C170.090302,249.179626 170.109406,249.564224 170.128021,249.755524 
	C163.722397,248.748886 157.271988,247.670135 150.891785,246.271301 
	C149.244583,245.910156 147.817749,244.543930 146.165161,243.319977 
	C153.813507,244.939407 161.586395,246.878281 169.724792,248.998383 
z"/>
<path fill="#0A64A5" opacity="1.000000" stroke="none" 
	d="
M132.099548,235.382416 
	C136.567902,237.484497 141.109558,239.921280 145.823395,242.658112 
	C140.605637,242.037964 134.970367,241.586090 132.099548,235.382416 
z"/>
<path fill="#086AB0" opacity="1.000000" stroke="none" 
	d="
M277.016541,280.438782 
	C278.743195,279.711243 280.489319,279.360687 282.613373,278.951355 
	C283.430756,278.905640 283.870209,278.918640 284.638733,278.924133 
	C283.482758,280.577606 282.094757,282.359192 280.382446,283.738068 
	C280.181641,283.899780 278.194855,281.843750 277.016541,280.438782 
z"/>
<path fill="#1487CA" opacity="1.000000" stroke="none" 
	d="
M199.089432,268.326324 
	C200.836288,268.840515 202.809784,269.613495 204.870758,270.750061 
	C203.077530,270.270813 201.196793,269.427948 199.089432,268.326324 
z"/>
<path fill="#1487CA" opacity="1.000000" stroke="none" 
	d="
M207.207642,272.302155 
	C208.551743,272.546539 210.156067,273.012939 211.864670,273.787170 
	C210.468582,273.571381 208.968216,273.047791 207.207642,272.302155 
z"/>
<path fill="#2FB0E9" opacity="1.000000" stroke="none" 
	d="
M85.166550,314.631470 
	C84.896095,314.450378 84.529144,313.986847 84.089111,313.231384 
	C84.367371,313.409332 84.718712,313.879211 85.166550,314.631470 
z"/>
<path fill="#0D85CA" opacity="1.000000" stroke="none" 
	d="
M287.908417,73.763969 
	C287.517517,74.287231 287.035004,74.575447 286.276855,74.931854 
	C286.606415,74.509666 287.211639,74.019295 287.908417,73.763969 
z"/>
<path fill="#0D85CA" opacity="1.000000" stroke="none" 
	d="
M298.771973,63.350414 
	C298.856415,63.137058 299.334686,63.183899 299.569427,63.231552 
	C300.008179,63.480560 300.210297,63.683796 300.556458,64.045937 
	C300.702393,64.202957 300.753601,64.598648 300.748413,64.798035 
	C300.058014,64.519531 299.372772,64.041649 298.771973,63.350414 
z"/>
<path fill="#0F84C7" opacity="1.000000" stroke="none" 
	d="
M302.970276,75.123230 
	C303.634888,76.911171 304.183594,78.372757 304.732300,79.834343 
	C304.337250,80.218689 303.942200,80.603035 303.547150,80.987381 
	C301.931854,79.589706 300.202515,78.295074 298.781250,76.722084 
	C298.424805,76.327599 299.031830,74.292046 299.240417,74.284790 
	C300.437683,74.243103 301.648285,74.585068 302.970276,75.123230 
z"/>
<path fill="#0F84C7" opacity="1.000000" stroke="none" 
	d="
M313.462799,81.097534 
	C313.833221,81.914726 313.928894,82.594574 314.051697,83.617386 
	C313.600586,84.040825 313.124756,84.168617 312.643707,84.193222 
	C310.957428,84.279480 309.269348,84.330170 307.581970,84.394363 
	C308.277069,82.757599 308.972168,81.120827 309.876221,79.197052 
	C311.119507,79.593430 312.153778,80.276817 313.462799,81.097534 
z"/>
<path fill="#2EACE5" opacity="1.000000" stroke="none" 
	d="
M13.736391,133.293198 
	C14.220768,134.800308 14.747688,136.618561 14.716963,138.427353 
	C14.673653,140.976974 13.655859,143.610474 14.050260,146.046936 
	C14.974691,151.757706 16.288372,157.428101 17.816236,163.013138 
	C19.964022,170.864288 18.612131,178.522232 17.682409,186.358719 
	C17.073669,191.489670 17.862186,196.900986 18.743250,202.064133 
	C19.769081,208.075592 21.532854,213.965439 23.094296,219.876907 
	C23.351437,220.850403 24.106352,222.331207 24.813356,222.444916 
	C29.946354,223.270340 28.265102,227.137543 28.441633,230.143295 
	C28.552574,232.032272 27.972912,234.121201 28.588835,235.794357 
	C31.774773,244.448944 35.400078,252.943405 38.505772,261.624756 
	C39.243172,263.686066 38.573437,266.250732 38.281048,268.794739 
	C34.822124,264.167755 31.633104,259.329926 28.208855,254.248993 
	C24.593727,246.709625 21.213829,239.413330 17.566692,231.908356 
	C17.299450,231.699677 17.190098,231.361725 17.145458,231.190369 
	C17.077492,230.266083 17.054167,229.513138 17.003059,228.385040 
	C14.125430,214.597397 10.844233,201.256409 8.604052,187.742844 
	C7.449119,180.775864 7.408373,173.421463 8.176000,166.385239 
	C9.375214,155.393005 11.688655,144.522308 13.736391,133.293198 
z"/>
<path fill="#2EACE5" opacity="1.000000" stroke="none" 
	d="
M39.153381,271.294983 
	C47.643364,271.221222 52.969219,276.682129 57.098709,283.303802 
	C58.077518,284.873352 56.623001,287.960388 56.138863,290.685608 
	C53.437527,288.203705 50.885128,285.385529 48.436455,282.141113 
	C49.089821,280.983521 49.639469,280.252197 50.189117,279.520874 
	C48.721203,279.046295 47.253284,278.571686 45.785370,278.097107 
	C43.631313,275.925385 41.477257,273.753632 39.153381,271.294983 
z"/>
<path fill="#2FB0E9" opacity="1.000000" stroke="none" 
	d="
M45.845535,278.425598 
	C47.253284,278.571686 48.721203,279.046295 50.189117,279.520874 
	C49.639469,280.252197 49.089821,280.983521 48.261528,281.856628 
	C47.290485,280.916962 46.598091,279.835510 45.845535,278.425598 
z"/>
<path fill="#0D85CA" opacity="1.000000" stroke="none" 
	d="
M325.976685,104.638748 
	C322.571014,104.296799 321.907593,101.782326 322.024963,98.368332 
	C323.320496,100.080200 324.609772,102.188683 325.976685,104.638748 
z"/>
<path fill="#1487CA" opacity="1.000000" stroke="none" 
	d="
M202.998047,246.670364 
	C200.501282,249.494293 197.716888,250.186050 194.250122,248.148987 
	C196.723694,246.981201 199.476883,246.017960 202.608398,245.032730 
	C202.990372,245.453262 202.993988,245.895798 202.998047,246.670364 
z"/>
<path fill="#27A8E2" opacity="1.000000" stroke="none" 
	d="
M204.822815,155.166550 
	C204.822815,155.166550 204.933670,155.521851 204.984772,156.093552 
	C206.962723,161.423569 208.889557,166.181870 210.816406,170.940186 
	C210.863602,172.364716 210.910812,173.789246 210.587692,175.802490 
	C209.178680,179.844742 208.404373,183.405304 207.056488,186.733612 
	C200.495697,202.934097 181.390991,211.763840 164.458984,206.565460 
	C147.444168,201.341644 137.776093,184.284485 141.795258,166.580414 
	C145.123871,151.918167 158.546646,140.865845 173.416794,141.076172 
	C178.988037,141.154984 184.543747,142.332809 190.106537,143.009552 
	C190.106537,143.009552 190.522522,143.086945 190.888550,143.326782 
	C191.496536,143.778061 191.772430,143.926437 192.082214,144.011780 
	C192.082214,144.011780 192.482971,144.088943 192.847076,144.323471 
	C193.454971,144.768448 193.731705,144.917786 194.041412,145.006012 
	C194.041412,145.006012 193.993607,145.004684 194.108246,145.295410 
	C195.169266,146.050934 196.115646,146.515732 197.062012,146.980545 
	C197.062012,146.980545 196.996414,146.994171 197.131622,147.179779 
	C197.532043,147.579300 197.797272,147.793228 198.062500,148.007141 
	C198.062500,148.007141 197.993774,148.003952 198.130173,148.185287 
	C198.528763,148.581146 198.790939,148.795654 199.053131,149.010178 
	C199.053131,149.010178 198.991745,149.007172 199.126740,149.192276 
	C199.524612,149.588730 199.787491,149.800079 200.050385,150.011429 
	C200.050385,150.011429 199.990845,150.008499 200.124847,150.194611 
	C200.522430,150.591049 200.786011,150.801361 201.049606,151.011673 
	C201.049606,151.011673 200.990768,151.008698 201.122101,151.195877 
	C201.515091,151.593781 201.776749,151.804504 202.038422,152.015228 
	C202.038422,152.015228 201.988937,152.010590 202.122742,152.200897 
	C202.523773,152.595886 202.790970,152.800568 203.058182,153.005234 
	C203.058182,153.005234 202.995575,153.007126 203.129532,153.193726 
	C203.535385,153.582794 203.807281,153.785248 204.079178,153.987717 
	C204.079178,153.987717 204.006165,153.991776 204.107025,154.186478 
	C204.376038,154.671799 204.581009,154.933594 204.822815,155.166550 
z"/>
<path fill="#47A1C8" opacity="1.000000" stroke="none" 
	d="
M189.931168,142.665878 
	C184.543747,142.332809 178.988037,141.154984 173.416794,141.076172 
	C158.546646,140.865845 145.123871,151.918167 141.795258,166.580414 
	C137.776093,184.284485 147.444168,201.341644 164.458984,206.565460 
	C181.390991,211.763840 200.495697,202.934097 207.056488,186.733612 
	C208.404373,183.405304 209.178680,179.844742 210.520676,176.225494 
	C212.650909,187.338577 201.562363,203.185425 188.375595,207.920532 
	C167.410080,215.448822 144.690002,203.038651 139.546906,183.442459 
	C134.748779,165.160614 145.615417,146.905487 162.693680,140.899155 
	C172.028275,137.616226 180.902420,138.687408 189.931168,142.665878 
z"/>
<path fill="#2CABE3" opacity="1.000000" stroke="none" 
	d="
M99.422325,167.836945 
	C98.625633,167.995255 98.153297,167.961700 97.325897,167.939758 
	C88.809998,163.483902 94.702469,156.229904 92.916542,150.413589 
	C99.819412,150.069611 99.761200,150.088196 97.726768,143.716782 
	C97.428841,142.783737 97.589203,141.108337 98.217407,140.570343 
	C103.027084,136.451385 106.336494,130.285049 113.662109,129.442825 
	C112.895447,131.593140 111.652756,133.383011 110.859459,135.353790 
	C108.485115,141.252365 106.286591,147.221695 104.019424,153.163391 
	C102.595169,157.990631 101.170921,162.817856 99.422325,167.836945 
z"/>
<path fill="#51A9CD" opacity="1.000000" stroke="none" 
	d="
M104.343887,152.992935 
	C106.286591,147.221695 108.485115,141.252365 110.859459,135.353790 
	C111.652756,133.383011 112.895447,131.593140 114.025558,129.376129 
	C114.723747,128.264801 115.329079,127.497917 116.309067,126.292267 
	C122.188904,121.188858 127.123123,115.468300 133.334488,112.109619 
	C142.415253,107.199371 152.412323,103.983673 162.018845,100.045715 
	C166.698029,99.694923 171.377213,99.344131 176.515457,98.979073 
	C177.404053,99.003433 177.833588,99.042061 178.582520,99.119873 
	C178.944901,99.826859 178.987900,100.494667 179.040833,101.499237 
	C168.342392,101.683365 157.810806,102.450966 147.727692,106.632576 
	C133.024628,112.730141 121.390511,122.454803 113.099022,135.962006 
	C109.824135,141.296936 107.451706,147.185837 104.343887,152.992935 
z"/>
<path fill="#47A1C8" opacity="1.000000" stroke="none" 
	d="
M210.891144,170.538101 
	C208.889557,166.181870 206.962723,161.423569 205.011505,156.277710 
	C206.980057,160.638794 208.972961,165.387405 210.891144,170.538101 
z"/>
<path fill="#47A1C8" opacity="1.000000" stroke="none" 
	d="
M196.947662,146.663757 
	C196.115646,146.515732 195.169266,146.050934 194.110931,145.271637 
	C194.943756,145.420425 195.888535,145.883698 196.947662,146.663757 
z"/>
<path fill="#47A1C8" opacity="1.000000" stroke="none" 
	d="
M204.000275,153.723877 
	C203.807281,153.785248 203.535385,153.582794 203.127838,153.162445 
	C203.301910,153.116394 203.611649,153.288223 204.000275,153.723877 
z"/>
<path fill="#47A1C8" opacity="1.000000" stroke="none" 
	d="
M204.892059,154.869278 
	C204.581009,154.933594 204.376038,154.671799 204.113525,154.150513 
	C204.333221,154.137222 204.647263,154.354614 204.892059,154.869278 
z"/>
<path fill="#47A1C8" opacity="1.000000" stroke="none" 
	d="
M202.974731,152.747467 
	C202.790970,152.800568 202.523773,152.595886 202.120392,152.176178 
	C202.286591,152.137314 202.588943,152.313507 202.974731,152.747467 
z"/>
<path fill="#47A1C8" opacity="1.000000" stroke="none" 
	d="
M200.970123,150.752197 
	C200.786011,150.801361 200.522430,150.591049 200.123459,150.164841 
	C200.288940,150.130203 200.589798,150.311462 200.970123,150.752197 
z"/>
<path fill="#47A1C8" opacity="1.000000" stroke="none" 
	d="
M199.970901,149.752045 
	C199.787491,149.800079 199.524612,149.588730 199.126022,149.161560 
	C199.290695,149.128021 199.591064,149.310333 199.970901,149.752045 
z"/>
<path fill="#47A1C8" opacity="1.000000" stroke="none" 
	d="
M198.974792,148.748932 
	C198.790939,148.795654 198.528763,148.581146 198.129059,148.150909 
	C198.293182,148.119339 198.594818,148.303513 198.974792,148.748932 
z"/>
<path fill="#47A1C8" opacity="1.000000" stroke="none" 
	d="
M197.984772,147.744049 
	C197.797272,147.793228 197.532043,147.579300 197.131760,147.146271 
	C197.300140,147.111771 197.603592,147.296371 197.984772,147.744049 
z"/>
<path fill="#47A1C8" opacity="1.000000" stroke="none" 
	d="
M193.965027,144.730301 
	C193.731705,144.917786 193.454971,144.768448 193.039215,144.392212 
	C193.207703,144.302475 193.548187,144.378525 193.965027,144.730301 
z"/>
<path fill="#47A1C8" opacity="1.000000" stroke="none" 
	d="
M191.991577,143.748505 
	C191.772430,143.926437 191.496536,143.778061 191.088028,143.397247 
	C191.247971,143.313644 191.574463,143.399429 191.991577,143.748505 
z"/>
<path fill="#47A1C8" opacity="1.000000" stroke="none" 
	d="
M201.963943,151.754425 
	C201.776749,151.804504 201.515091,151.593781 201.120728,151.166443 
	C201.288513,151.131104 201.588989,151.312363 201.963943,151.754425 
z"/>
<path fill="#2CABE3" opacity="1.000000" stroke="none" 
	d="
M161.875244,99.698807 
	C152.412323,103.983673 142.415253,107.199371 133.334488,112.109619 
	C127.123123,115.468300 122.188904,121.188858 116.376755,125.997955 
	C114.382355,117.506653 120.322594,112.691910 125.428055,107.458138 
	C126.808388,106.043121 128.137772,104.574913 129.569473,103.214180 
	C132.869461,100.077789 136.145996,97.755463 141.408127,98.361778 
	C146.014282,98.892502 150.832596,97.236961 155.568909,97.143906 
	C157.607910,97.103836 159.676514,98.570015 161.875244,99.698807 
z"/>
</svg>